<?xml version="1.0" standalone="no"?><!DOCTYPE svg PUBLIC "-//W3C//DTD SVG 1.1//EN" "http://www.w3.org/Graphics/SVG/1.1/DTD/svg11.dtd"><svg t="1722741543896" class="icon" viewBox="0 0 1024 1024" version="1.1" xmlns="http://www.w3.org/2000/svg" p-id="7029" xmlns:xlink="http://www.w3.org/1999/xlink" width="128" height="128"><path d="M512 520c38.4 0 70.4-32 70.4-70.4V70.4C582.4 32 550.4 0 512 0c-40 0-70.4 32-70.4 70.4v379.2c0 38.4 30.4 70.4 70.4 70.4z" p-id="7030"></path><path d="M704 171.2l-11.2-4.8v161.6l3.2 1.6c78.4 59.2 123.2 148.8 123.2 244.8 0 169.6-137.6 307.2-307.2 307.2s-307.2-137.6-307.2-307.2c0-96 44.8-185.6 123.2-244.8l3.2-1.6V166.4l-11.2 4.8C161.6 246.4 62.4 401.6 62.4 574.4 62.4 822.4 264 1024 512 1024s449.6-201.6 449.6-449.6c0-172.8-99.2-328-257.6-403.2z" p-id="7031"></path></svg>